<?xml version="1.0" standalone="no"?>
<!DOCTYPE svg PUBLIC "-//W3C//DTD SVG 20010904//EN"
 "http://www.w3.org/TR/2001/REC-SVG-20010904/DTD/svg10.dtd">
<svg version="1.0" xmlns="http://www.w3.org/2000/svg"
 width="500.000000pt" height="91.000000pt" viewBox="0 0 500.000000 91.000000"
 preserveAspectRatio="xMidYMid meet">

<g transform="translate(0.000000,91.000000) scale(0.100000,-0.100000)"
fill="#000000" stroke="none">
<path d="M4635 890 c-165 -10 -376 -21 -470 -24 -93 -4 -204 -9 -245 -13 -118
-10 -332 -22 -420 -22 -14 -1 -106 -6 -205 -12 -99 -6 -193 -11 -210 -10 -57
3 -175 -11 -169 -20 3 -5 -5 -4 -18 1 -16 8 -63 8 -153 2 -71 -6 -134 -8 -141
-5 -7 3 -23 -2 -35 -11 -16 -11 -27 -12 -41 -5 -13 7 -74 7 -191 0 -95 -6
-320 -18 -502 -26 -181 -9 -337 -19 -345 -22 -8 -3 -44 -5 -80 -4 -36 1 -135
-3 -220 -8 -85 -6 -202 -13 -260 -16 -431 -22 -684 -36 -740 -41 -36 -4 -92
-6 -125 -5 l-60 2 1 -33 1 -33 59 0 c82 1 336 13 754 35 195 11 445 24 555 30
110 6 274 15 365 20 91 5 246 12 345 16 137 5 186 10 204 22 18 10 26 12 29 4
5 -15 92 -16 92 -2 0 7 7 7 17 2 10 -4 36 -5 58 -1 22 3 36 7 32 8 -5 0 -1 8
8 17 15 15 18 15 36 -5 20 -22 44 -27 53 -12 3 4 23 6 46 4 36 -4 280 8 815
38 105 6 205 11 223 10 25 0 32 4 32 19 0 11 7 20 15 20 18 0 20 -17 3 -23 -7
-2 12 -4 42 -4 30 0 61 5 69 11 11 8 13 8 8 -1 -6 -10 10 -11 70 -8 43 3 116
8 163 11 47 2 94 5 105 4 32 -1 633 30 703 36 59 5 63 7 58 27 -3 12 -6 28 -6
35 0 6 -6 11 -12 11 -7 -1 -148 -10 -313 -19z m-1732 -135 c-3 -9 -8 -14 -10
-11 -3 3 -2 9 2 15 9 16 15 13 8 -4z m-2753 -125 c0 -5 -4 -10 -10 -10 -5 0
-10 5 -10 10 0 6 5 10 10 10 6 0 10 -4 10 -10z m135 -10 c3 -5 2 -10 -4 -10
-5 0 -13 5 -16 10 -3 6 -2 10 4 10 5 0 13 -4 16 -10z"/>
<path d="M4623 788 c-116 -26 -173 -207 -105 -338 16 -31 39 -59 57 -69 17 -9
33 -20 36 -25 11 -14 143 -20 168 -7 12 7 19 16 16 22 -4 5 9 9 29 9 30 0 40
6 61 38 46 70 51 199 10 279 -44 86 -144 120 -272 91z m165 -102 c31 -30 35
-41 39 -103 4 -52 1 -77 -11 -100 -19 -37 -66 -73 -95 -73 -39 0 -102 32 -112
57 -8 21 -12 22 -31 13 -20 -10 -21 -10 -6 3 14 11 16 24 11 69 -15 148 110
230 205 134z"/>
<path d="M4268 770 c-26 -4 -52 -11 -58 -15 -6 -4 -16 -2 -23 4 -8 6 -32 7
-62 3 -43 -6 -51 -11 -53 -31 -5 -32 12 -41 81 -41 38 0 57 -4 58 -12 1 -7 6
-87 12 -178 l12 -165 28 -10 c52 -18 58 5 51 190 -3 88 -7 164 -8 170 0 5 9
11 22 13 12 2 22 8 22 13 0 13 28 11 32 -3 6 -18 56 0 63 23 4 12 2 26 -4 32
-14 14 -113 18 -173 7z m24 -32 c-7 -7 -12 -8 -12 -2 0 14 12 26 19 19 2 -3
-1 -11 -7 -17z"/>
<path d="M3948 755 c-3 -3 -52 -8 -109 -11 -57 -2 -111 -7 -120 -10 -19 -5
-33 -44 -17 -44 7 0 7 -5 1 -12 -5 -7 -7 -46 -5 -86 3 -63 6 -73 20 -68 15 5
15 5 2 -6 -12 -11 -14 -31 -10 -105 3 -51 10 -97 16 -104 9 -8 53 -9 164 -2
126 6 155 11 163 25 8 12 7 21 -3 33 -13 15 -28 17 -121 11 -59 -3 -113 -4
-121 -1 -9 4 -12 18 -10 46 4 40 4 41 -24 37 -16 -3 -23 -3 -16 -1 6 3 12 9
12 14 0 5 7 9 15 9 8 0 15 4 15 9 0 4 32 11 72 15 39 3 78 12 87 19 12 10 13
9 7 -1 -6 -10 -1 -13 20 -10 21 2 30 9 32 25 5 32 -34 47 -92 39 -36 -6 -44
-10 -40 -24 4 -11 3 -13 -3 -5 -5 7 -27 15 -50 19 -46 7 -52 18 -45 77 l4 37
100 0 c107 0 148 11 128 35 -7 8 -9 18 -6 23 8 14 -53 29 -66 17z m-188 -200
c0 -8 -4 -15 -10 -15 -5 0 -7 7 -4 15 4 8 8 15 10 15 2 0 4 -7 4 -15z m35 -35
c3 -5 1 -10 -4 -10 -6 0 -11 5 -11 10 0 6 2 10 4 10 3 0 8 -4 11 -10z"/>
<path d="M3366 731 c-59 -9 -79 -31 -72 -81 3 -19 8 -89 12 -155 4 -72 11
-123 18 -127 8 -6 8 -8 -1 -8 -18 0 -16 -56 3 -74 19 -20 23 -20 54 3 19 15
22 22 13 33 -8 9 -9 19 -3 28 6 8 10 39 10 68 0 36 4 54 14 58 20 8 106 -32
106 -48 0 -7 11 -25 25 -40 14 -15 25 -31 25 -35 0 -17 48 -64 55 -53 3 6 10
8 15 5 5 -3 19 -1 29 5 18 9 19 14 9 35 -6 14 -15 25 -20 25 -5 0 -7 4 -4 9 7
10 -29 59 -69 94 -24 21 -26 26 -12 27 10 0 20 7 23 15 4 8 10 13 14 10 18
-11 50 48 50 91 0 102 -101 141 -294 115z m234 -61 c0 -5 -4 -10 -9 -10 -6 0
-13 5 -16 10 -3 6 1 10 9 10 9 0 16 -4 16 -10z m-47 -29 c13 -12 16 -25 11
-48 -8 -38 -41 -53 -120 -53 l-54 0 0 59 c0 54 2 60 23 64 40 8 122 -4 140
-22z m-236 -43 c-3 -8 -6 -5 -6 6 -1 11 2 17 5 13 3 -3 4 -12 1 -19z m233 -93
c0 -12 -29 -3 -34 10 -4 13 -2 14 14 5 11 -6 20 -13 20 -15z m-53 -7 c-3 -8
-6 -5 -6 6 -1 11 2 17 5 13 3 -3 4 -12 1 -19z"/>
<path d="M3049 710 c-66 -11 -124 -53 -144 -103 -24 -59 -29 -125 -16 -188 27
-126 111 -178 251 -154 50 8 88 34 69 46 -7 4 1 10 19 14 46 10 70 88 35 116
-14 12 -17 12 -21 0 -10 -30 -104 -111 -131 -112 -44 -2 -65 2 -82 17 -8 8
-20 14 -25 14 -12 0 -35 75 -36 116 -2 57 24 132 49 143 13 6 23 15 23 21 0 6
5 8 10 5 6 -3 10 0 10 7 0 8 3 9 8 3 4 -5 16 -11 27 -13 32 -5 75 -26 75 -37
1 -19 38 -55 57 -55 34 0 46 15 38 51 -9 42 -64 95 -107 104 -18 3 -40 8 -48
9 -8 2 -36 0 -61 -4z m186 -90 c3 -5 1 -10 -4 -10 -6 0 -11 5 -11 10 0 6 2 10
4 10 3 0 8 -4 11 -10z m-307 -63 c7 -8 7 -18 2 -27 -10 -17 -15 -13 -24 18 -8
24 5 30 22 9z m10 -146 c11 -7 11 -9 -1 -14 -16 -6 -27 0 -27 15 0 10 11 10
28 -1z m2 -41 c0 -5 -5 -10 -11 -10 -5 0 -7 5 -4 10 3 6 8 10 11 10 2 0 4 -4
4 -10z m283 -17 c-7 -2 -19 -2 -25 0 -7 3 -2 5 12 5 14 0 19 -2 13 -5z m-43
-27 c0 -2 -7 -6 -15 -10 -8 -3 -15 -1 -15 4 0 6 7 10 15 10 8 0 15 -2 15 -4z"/>
<path d="M2577 680 c-45 -3 -71 -10 -77 -20 -14 -23 -12 -30 8 -23 15 6 15 5
-1 -12 -16 -16 -18 -28 -12 -89 4 -39 12 -74 19 -78 8 -5 7 -8 -2 -8 -11 0
-12 -20 -7 -97 3 -54 10 -102 14 -106 9 -9 27 -10 180 -7 124 2 151 10 151 45
0 32 -18 36 -150 33 -100 -3 -105 -2 -103 17 2 11 0 30 -2 43 -5 18 -10 22
-27 16 -18 -5 -19 -4 -7 9 8 8 17 13 20 11 4 -2 9 3 13 11 4 11 23 15 81 15
53 0 75 4 75 13 0 9 2 9 8 -1 13 -19 65 3 60 25 -5 27 -47 43 -96 36 -33 -4
-42 -9 -37 -21 4 -11 2 -12 -7 -5 -21 17 -86 25 -90 12 -2 -6 -4 16 -4 50 -1
72 -6 70 136 74 l95 2 0 30 0 30 -85 0 c-47 0 -116 -2 -153 -5z m-17 -190 c0
-5 -5 -10 -11 -10 -5 0 -7 5 -4 10 3 6 8 10 11 10 2 0 4 -4 4 -10z m10 -44 c0
-3 -4 -8 -10 -11 -5 -3 -10 -1 -10 4 0 6 5 11 10 11 6 0 10 -2 10 -4z"/>
<path d="M2192 653 c-49 -24 -72 -59 -72 -109 0 -52 36 -99 83 -109 159 -33
208 -66 173 -119 -17 -27 -69 -42 -110 -32 -14 3 -38 25 -53 49 -31 46 -62 57
-83 32 -12 -14 -12 -23 1 -58 24 -70 101 -107 194 -93 39 6 45 10 45 32 0 17
5 24 20 24 14 0 18 -5 13 -16 -5 -15 -3 -14 21 1 37 24 46 45 46 105 0 45 -4
56 -29 80 -17 15 -56 34 -89 44 -72 20 -83 20 -76 1 4 -8 1 -15 -5 -15 -6 0
-11 9 -11 20 0 16 -7 20 -37 20 -27 0 -34 3 -26 11 6 6 9 17 7 23 -2 6 4 29
15 51 11 22 20 35 21 29 0 -6 18 -14 41 -17 22 -3 48 -12 57 -19 9 -8 29 -13
45 -12 18 2 27 -2 27 -11 0 -9 -6 -12 -16 -8 -12 4 -15 2 -12 -8 3 -8 16 -14
29 -14 52 0 30 89 -29 118 -39 21 -150 21 -190 0z m206 -35 c-6 -16 -33 -22
-56 -13 -14 5 -14 7 -2 15 22 14 62 12 58 -2z m-194 -129 c-4 -8 1 -9 17 -5
21 6 22 5 6 -4 -10 -7 -26 -9 -35 -5 -14 5 -14 7 -2 15 20 13 23 12 14 -1z
m183 -35 c-3 -3 -12 -4 -19 -1 -8 3 -5 6 6 6 11 1 17 -2 13 -5z m-100 -20 c-3
-3 -12 -4 -19 -1 -8 3 -5 6 6 6 11 1 17 -2 13 -5z"/>
<path d="M1820 630 c-11 -11 -21 -26 -22 -32 -2 -22 -5 -33 -11 -48 -4 -8 -30
-82 -58 -163 -56 -161 -57 -192 -12 -203 31 -8 49 12 59 62 3 18 11 37 18 42
6 5 48 12 93 16 l81 6 22 -44 c27 -56 43 -70 75 -62 20 5 25 13 25 39 0 18 -7
43 -16 55 -8 12 -13 22 -9 22 3 0 -6 23 -20 51 -14 28 -44 91 -66 142 -21 50
-49 101 -61 114 -27 29 -71 30 -98 3z m68 -122 c7 -18 22 -53 33 -77 11 -24
17 -46 14 -49 -7 -7 -115 -16 -115 -9 0 3 7 35 15 71 25 109 32 117 53 64z"/>
<path d="M1310 623 c-36 -6 -50 -30 -50 -84 0 -37 4 -49 18 -52 16 -4 16 -5
-1 -6 -14 -1 -16 -7 -12 -38 4 -21 7 -69 8 -106 2 -47 7 -71 17 -77 11 -7 12
-10 2 -10 -19 0 -11 -60 9 -73 25 -16 75 18 58 39 -9 11 -9 20 -1 37 7 12 11
42 9 67 -2 36 1 45 17 48 24 5 96 -27 96 -43 0 -6 11 -22 25 -35 14 -13 25
-27 25 -32 0 -5 10 -22 21 -38 17 -22 28 -28 50 -25 50 6 64 29 35 57 -7 8
-16 23 -20 35 -4 12 -24 38 -45 58 -38 37 -38 38 -20 56 11 11 23 19 27 19 17
0 40 36 46 70 9 47 -19 100 -64 122 -27 14 -58 18 -130 17 -52 -1 -106 -4
-120 -6z m257 -69 c-9 -9 -28 6 -21 18 4 6 10 6 17 -1 6 -6 8 -13 4 -17z m-43
-19 c17 -24 8 -69 -17 -84 -29 -19 -144 -25 -149 -9 -3 7 -6 34 -7 60 -2 55 4
58 97 54 45 -3 67 -9 76 -21z m-234 -25 c0 -5 -2 -10 -4 -10 -3 0 -8 5 -11 10
-3 6 -1 10 4 10 6 0 11 -4 11 -10z m220 -107 c0 -3 -9 -3 -20 0 -11 3 -20 1
-20 -5 0 -5 -5 -6 -11 -2 -8 5 -8 9 1 14 12 8 50 2 50 -7z"/>
<path d="M1025 595 c-31 -8 -54 -10 -59 -4 -13 12 -58 12 -90 -1 -18 -7 -26
-17 -26 -34 0 -29 16 -36 85 -36 l53 0 5 -42 c4 -24 9 -99 13 -168 5 -91 11
-130 22 -142 19 -22 36 -23 56 -2 19 18 21 74 4 74 -10 0 -10 2 -1 8 9 6 10
42 5 140 l-7 133 33 16 c28 13 35 14 42 3 11 -17 57 1 67 26 16 42 -95 58
-202 29z m55 -15 c0 -5 -4 -10 -10 -10 -5 0 -10 5 -10 10 0 6 5 10 10 10 6 0
10 -4 10 -10z m-13 -166 c-3 -3 -12 -4 -19 -1 -8 3 -5 6 6 6 11 1 17 -2 13 -5z
m-22 -104 c3 -5 1 -10 -4 -10 -6 0 -11 5 -11 10 0 6 2 10 4 10 3 0 8 -4 11
-10z"/>
<path d="M532 572 c-24 -16 -29 -67 -20 -207 14 -212 16 -225 41 -234 32 -12
269 6 283 21 8 9 9 21 3 36 -8 21 -14 22 -118 22 l-110 0 -5 102 c-2 57 -5
131 -5 165 0 89 -25 123 -69 95z"/>
<path d="M414 554 c20 -20 20 -21 -5 -27 -16 -4 -18 -3 -9 8 8 9 7 14 -4 18
-19 7 -30 -22 -15 -39 6 -8 19 -14 28 -15 9 -1 5 -4 -9 -8 -14 -4 -24 -14 -22
-21 6 -25 3 -219 -4 -245 -3 -14 -13 -25 -21 -25 -8 0 -11 -4 -8 -10 13 -20
-91 -11 -118 10 -29 23 -35 47 -41 164 -4 74 -16 103 -38 90 -4 -3 -8 0 -8 6
0 7 8 9 19 5 27 -8 34 9 21 50 -13 39 -50 56 -75 35 -17 -14 -17 -50 0 -62 6
-5 6 -8 -2 -8 -7 0 -10 -20 -9 -60 1 -46 6 -63 21 -76 17 -13 17 -15 2 -10
-14 5 -17 -1 -17 -42 0 -52 5 -63 35 -80 17 -10 18 -11 3 -12 -26 0 -22 -16
13 -50 38 -36 79 -45 167 -36 108 11 151 57 154 167 2 65 -7 217 -16 254 -2
11 -5 23 -5 28 -1 4 -13 7 -27 7 -23 0 -24 -1 -10 -16z"/>
<path d="M4919 325 c-3 -2 -74 -7 -159 -10 -316 -12 -490 -24 -511 -36 -16 -8
-20 -8 -14 0 5 9 -28 10 -127 6 -73 -3 -153 -8 -177 -11 -25 -3 -110 -8 -190
-10 -174 -4 -296 -17 -316 -34 -7 -6 -11 -19 -8 -28 6 -15 5 -15 -10 -3 -10 8
-15 21 -12 32 5 16 0 17 -47 14 -29 -2 -109 -6 -178 -10 -69 -3 -138 -8 -155
-10 -16 -2 -100 -7 -185 -11 -291 -13 -283 -12 -274 -25 4 -8 0 -7 -15 0 -16
9 -121 7 -439 -8 -532 -26 -691 -38 -708 -56 -18 -17 -18 -56 -1 -50 6 2 91 7
187 10 96 4 193 9 215 11 22 2 69 3 105 3 36 0 173 7 305 15 132 8 299 18 370
21 202 11 208 12 221 30 11 15 13 15 22 -1 9 -16 25 -16 238 -5 126 6 254 14
284 17 30 3 73 5 95 4 22 0 155 6 295 15 140 8 258 15 263 15 4 0 7 8 7 18 1
16 2 15 15 -2 13 -17 23 -18 97 -12 46 3 151 9 233 11 83 3 168 7 190 10 22 3
94 7 160 10 318 14 312 12 299 63 -5 17 -14 22 -38 22 -18 0 -35 -2 -37 -5z
m-3489 -225 c0 -5 -5 -10 -11 -10 -5 0 -7 5 -4 10 3 6 8 10 11 10 2 0 4 -4 4
-10z"/>
<path d="M850 112 c-233 -12 -426 -25 -429 -28 -3 -2 1 -10 7 -16 18 -18 15
-28 -8 -28 -16 0 -19 5 -16 26 l5 26 -67 -6 c-37 -3 -120 -8 -184 -12 l-118
-6 0 -34 c0 -34 0 -34 46 -34 25 0 43 3 41 8 -3 4 16 6 41 4 26 -2 223 6 437
18 215 12 464 25 555 30 192 10 214 15 200 40 -6 11 -5 21 3 29 8 8 -1 11 -38
9 -28 -2 -241 -13 -475 -26z"/>
</g>
</svg>
